Coordinates
version=1
nRows=38
nColumns=12
inDegrees=yes

Units are S.I. units (second, meters, Newtons, ...)
Angles are in degrees

endheader
time	SC_y	SC_z	SC_x	AC_y	AC_z	AC_x	GH_y	GH_z	GH_yy	EL_x	PS_y
       0.0              -40.47         -3.961          38.13           51.3         -3.607         -8.021          -89.7          81.09          30.29          15.38           68.0
   0.02469              -40.47         -3.959          38.12           51.3         -3.607         -8.022          -89.7          81.08          30.28          15.38           68.0
   0.04939              -40.47         -3.957          38.12           51.3         -3.607         -8.023          -89.7          81.08          30.27          15.39          68.01
   0.07408              -40.47         -3.956          38.12           51.3         -3.607         -8.025         -89.71          81.07          30.27          15.39          68.01
   0.09877              -40.47         -3.954          38.12           51.3         -3.607         -8.026         -89.71          81.07          30.26          15.39          68.01
    0.1235              -40.48         -3.952          38.12          51.31         -3.607         -8.027         -89.71          81.06          30.25          15.39          68.01
    0.1482              -40.48          -3.95          38.12          51.31         -3.607         -8.029         -89.72          81.06          30.24          15.39          68.02
    0.1729              -40.48         -3.947          38.11          51.31         -3.607          -8.03         -89.72          81.05          30.23          15.39          68.02
    0.1975              -40.48         -3.945          38.11          51.31         -3.607         -8.032         -89.73          81.05          30.22          15.39          68.02
    0.2222              -40.49         -3.942          38.11          51.31         -3.607         -8.033         -89.73          81.04          30.21          15.39          68.03
    0.2469              -40.49         -3.939          38.11          51.31         -3.607         -8.035         -89.74          81.03           30.2           15.4          68.03
    0.2716              -40.49         -3.936          38.11          51.31         -3.607         -8.037         -89.75          81.02          30.19           15.4          68.03
    0.2963               -40.5         -3.933           38.1          51.31         -3.607          -8.04         -89.75          81.02          30.17           15.4          68.04
     0.321               -40.5         -3.929           38.1          51.31         -3.607         -8.042         -89.76          81.01          30.16           15.4          68.04
    0.3457               -40.5         -3.926           38.1          51.31         -3.606         -8.044         -89.77           81.0          30.14           15.4          68.05
    0.3704              -40.51         -3.921          38.09          51.32         -3.606         -8.047         -89.78          80.99          30.13          15.41          68.05
    0.3951              -40.51         -3.917          38.09          51.32         -3.606          -8.05         -89.79          80.97          30.11          15.41          68.06
    0.4198              -40.52         -3.912          38.09          51.32         -3.606         -8.053          -89.8          80.96          30.09          15.41          68.06
    0.4445              -40.52         -3.907          38.08          51.32         -3.606         -8.057         -89.81          80.95          30.07          15.42          68.07
    0.4692              -40.53         -3.901          38.08          51.32         -3.606         -8.061         -89.82          80.93          30.04          15.42          68.08
    0.4939              -40.53         -3.894          38.07          51.33         -3.606         -8.065         -89.83          80.92          30.02          15.42          68.09
    0.5186              -40.54         -3.887          38.07          51.33         -3.606          -8.07         -89.85           80.9          29.99          15.43           68.1
    0.5433              -40.55         -3.879          38.06          51.33         -3.606         -8.075         -89.86          80.88          29.95          15.43          68.11
     0.568              -40.56          -3.87          38.05          51.33         -3.606         -8.081         -89.88          80.86          29.92          15.44          68.12
    0.5926              -40.57         -3.861          38.05          51.34         -3.606         -8.087          -89.9          80.83          29.88          15.44          68.13
    0.6173              -40.58          -3.85          38.04          51.34         -3.605         -8.095         -89.92           80.8          29.83          15.45          68.14
     0.642              -40.59         -3.838          38.03          51.35         -3.605         -8.103         -89.95          80.77          29.78          15.46          68.16
    0.6667               -40.6         -3.824          38.02          51.35         -3.605         -8.112         -89.98          80.74          29.73          15.47          68.18
    0.6914              -40.62         -3.808           38.0          51.36         -3.605         -8.122         -90.01           80.7          29.67          15.48           68.2
    0.7161              -40.63         -3.791          37.99          51.36         -3.604         -8.133         -90.05          80.65          29.59          15.49          68.22
    0.7408              -40.65         -3.771          37.97          51.37         -3.604         -8.147         -90.09           80.6          29.51           15.5          68.25
    0.7655              -40.68         -3.748          37.96          51.38         -3.604         -8.162         -90.13          80.54          29.42          15.51          68.27
    0.7902               -40.7         -3.721          37.93          51.39         -3.603         -8.179         -90.19          80.48          29.31          15.53          68.31
    0.8149              -40.73          -3.69          37.91           51.4         -3.603           -8.2         -90.25           80.4          29.18          15.55          68.35
    0.8396              -40.77         -3.654          37.88          51.41         -3.602         -8.223         -90.33          80.31          29.04          15.57          68.39
    0.8643              -40.81         -3.612          37.85          51.43         -3.602         -8.252         -90.41           80.2          28.86          15.59          68.45
     0.889              -40.86         -3.561          37.81          51.44         -3.601         -8.285         -90.52          80.07          28.66          15.62          68.51
    0.9137              -40.92         -3.501          37.76          51.47           -3.6         -8.325         -90.64          79.91          28.41          15.66          68.59
